<svg xmlns="http://www.w3.org/2000/svg" width="204" height="40" viewBox="0 0 204 40" fill="none"><path d="M9.87464 33.851C7.97449 33.851 6.39103 33.6927 5.12866 33.376C3.86189 33.0593 2.85023 32.5535 2.08929 31.8585C1.32835 31.1635 0.791732 30.2531 0.475039 29.1226C0.158347 27.9966 0 26.6111 0 24.9661V16.8332C0 15.2146 0.158347 13.8334 0.475039 12.6942C0.791732 11.555 1.32835 10.6357 2.08929 9.94076C2.85023 9.2458 3.86189 8.73997 5.12866 8.42327C6.39543 8.10658 7.97889 7.94824 9.87464 7.94824H19.7097C21.6318 7.94824 23.2285 8.10658 24.4953 8.42327C25.762 8.73997 26.7737 9.2458 27.5346 9.94076C28.2956 10.6357 28.8322 11.555 29.1489 12.6942C29.4656 13.8334 29.6239 15.2146 29.6239 16.8332V24.9617C29.6239 26.6067 29.4656 27.9922 29.1489 29.1182C28.8322 30.2443 28.2956 31.1548 27.5346 31.8541C26.7737 32.5491 25.762 33.0549 24.4953 33.3716C23.2285 33.6883 21.6318 33.8466 19.7097 33.8466H9.87464V33.851ZM23.8531 17.1015C23.8531 16.2922 23.7827 15.6192 23.6464 15.087C23.5056 14.5548 23.2725 14.1237 22.9426 13.7939C22.6127 13.464 22.1641 13.2352 21.5967 13.1121C21.0249 12.9845 20.3255 12.9229 19.4898 12.9229H10.1474C9.23686 12.9229 8.49351 12.9845 7.92611 13.1121C7.3587 13.2396 6.90565 13.4684 6.58017 13.7939C6.25028 14.1237 6.03035 14.5548 5.91599 15.087C5.80163 15.6192 5.74445 16.2878 5.74445 17.1015V24.7329C5.74445 25.5687 5.80163 26.2592 5.91599 26.8046C6.03035 27.35 6.25028 27.7811 6.58017 28.0978C6.91005 28.4145 7.3587 28.63 7.92611 28.7444C8.49791 28.8587 9.23686 28.9159 10.1474 28.9159H19.4898C20.3255 28.9159 21.0293 28.8587 21.5967 28.7444C22.1641 28.63 22.6171 28.4145 22.9426 28.0978C23.2725 27.7811 23.5056 27.35 23.6464 26.8046C23.7871 26.2592 23.8531 25.5687 23.8531 24.7329V17.1015Z" fill="#219EBC"></path><path d="M50.8907 13.2659C52.8129 13.2659 54.4095 13.4242 55.6763 13.7409C56.9431 14.0576 57.9547 14.5634 58.7157 15.2584C59.4766 15.9534 60.0132 16.8727 60.3299 18.0119C60.6466 19.1511 60.8049 20.5454 60.8049 22.1904V24.9615C60.8049 26.6065 60.6466 27.9921 60.3299 29.1181C60.0132 30.2441 59.4766 31.1546 58.7157 31.854C57.9547 32.5489 56.9431 33.0547 55.6763 33.3714C54.4095 33.6881 52.8129 33.8465 50.8907 33.8465H39.4194V40H33.7585V22.186C33.7585 20.541 33.9169 19.1467 34.2336 18.0075C34.5503 16.8683 35.0869 15.949 35.8478 15.254C36.6088 14.559 37.6204 14.0532 38.8872 13.7365C40.154 13.4198 41.7462 13.2615 43.6728 13.2615H50.8907V13.2659ZM55.1441 22.34C55.1441 21.4295 55.0737 20.6949 54.933 20.1363C54.7922 19.5777 54.5327 19.1467 54.1544 18.8432C53.7761 18.5397 53.2615 18.3373 52.6149 18.2362C51.9684 18.135 51.1546 18.0822 50.165 18.0822H43.8619C42.9734 18.0822 42.2433 18.1438 41.6583 18.2714C41.0733 18.3989 40.6202 18.6189 40.2903 18.9355C39.9604 19.2522 39.7317 19.6833 39.6086 20.2287C39.481 20.7741 39.4194 21.4647 39.4194 22.3004V29.0213H50.2046C51.1942 29.0213 52.0035 28.9773 52.6369 28.8894C53.2703 28.8014 53.7761 28.6035 54.1544 28.3C54.5327 27.9965 54.7922 27.5654 54.933 27.0068C55.0737 26.4482 55.1441 25.7048 55.1441 24.768V22.34Z" fill="#219EBC"></path><path d="M66.2722 33.851V17.8624H63.3867V13.266H66.2722V7.45557H72.043V13.266H78.5396V17.8624H72.043V33.851H66.2722Z" fill="#219EBC"></path><path d="M86.7429 25.6477V26.5977C86.7429 27.2311 86.7957 27.737 86.8968 28.1152C86.998 28.4935 87.1827 28.7926 87.4467 29.0081C87.7106 29.2236 88.0669 29.3688 88.5111 29.4436C88.9554 29.5183 89.5052 29.5579 90.1649 29.5579H96.8507V33.8509H90.1649C86.8968 33.8509 84.57 33.2307 83.1757 31.9903C81.7814 30.7499 81.0864 28.7618 81.0864 26.0259V21.2799C81.0864 19.7845 81.2316 18.5265 81.5219 17.5016C81.8122 16.4768 82.318 15.6543 83.0394 15.0341C83.7607 14.4139 84.7152 13.9652 85.9072 13.6837C87.0992 13.4066 88.6035 13.2659 90.4288 13.2659H100.378C101.847 13.2659 103.07 13.4066 104.042 13.6837C105.014 13.9608 105.788 14.3479 106.36 14.8405C106.928 15.3332 107.328 15.9314 107.557 16.6263C107.785 17.3213 107.9 18.0778 107.9 18.8872V25.6477H86.7429ZM102.239 19.3402C102.239 18.6584 102.067 18.201 101.724 17.9723C101.381 17.7436 100.783 17.6292 99.9208 17.6292H90.5036C89.7955 17.6292 89.1973 17.66 88.7178 17.7259C88.2384 17.7875 87.8513 17.9327 87.561 18.1614C87.2707 18.3901 87.0596 18.72 86.9364 19.1511C86.8089 19.5821 86.7473 20.1627 86.7473 20.8973V21.9969H102.243V19.3402H102.239Z" fill="#219EBC"></path><path d="M121.685 33.8509C119.785 33.8509 118.201 33.6925 116.939 33.3758C115.672 33.0591 114.66 32.5533 113.899 31.8583C113.138 31.1634 112.602 30.2529 112.285 29.1225C111.968 27.9964 111.81 26.6109 111.81 24.9659V22.1948C111.81 20.5498 111.968 19.1555 112.285 18.0162C112.602 16.877 113.138 15.9577 113.899 15.2628C114.66 14.5678 115.672 14.062 116.939 13.7453C118.205 13.4286 119.789 13.2703 121.685 13.2703H136.574V18.1306H121.874C120.985 18.1306 120.26 18.1922 119.692 18.3197C119.125 18.4473 118.672 18.6672 118.342 18.9839C118.012 19.3006 117.783 19.7361 117.66 20.2947C117.533 20.8533 117.471 21.5482 117.471 22.384V24.8163C117.471 25.6257 117.533 26.303 117.66 26.8484C117.788 27.3939 118.012 27.8293 118.342 28.1592C118.672 28.4891 119.12 28.7222 119.692 28.863C120.26 29.0037 120.99 29.0741 121.874 29.0741H136.609V33.8597H121.685V33.8509Z" fill="#219EBC"></path><path d="M162.089 33.851V22.3797C162.089 21.5176 162.019 20.8094 161.878 20.2552C161.737 19.6966 161.504 19.2612 161.174 18.9445C160.844 18.6278 160.387 18.4123 159.806 18.2979C159.221 18.1835 158.5 18.1264 157.642 18.1264H146.364V33.851H140.708V6.61987H146.369V13.266H157.801C159.723 13.266 161.324 13.4244 162.604 13.7411C163.884 14.0577 164.9 14.5636 165.661 15.2585C166.422 15.9535 166.958 16.8728 167.275 18.012C167.592 19.1512 167.75 20.5455 167.75 22.1906V33.851H162.089Z" fill="#219EBC"></path><path d="M187.856 15.4871L195.201 8.10205H203.655L191.559 20.4267C191.44 19.5426 191.049 18.6936 190.38 18.0207L187.856 15.4871Z" fill="#219EBC"></path><path d="M191.555 21.5352L203.651 33.697H194.867L187.847 26.5451L190.394 23.9499C191.058 23.2726 191.445 22.4193 191.555 21.5352Z" fill="#219EBC"></path><path d="M189.043 18.7024L185.841 15.4827L182.01 11.6296H175.302V5.08902C174.48 4.62278 173.499 4.46003 172.531 4.68436C168.942 5.51127 168.19 8.62541 170.768 11.2513L180.343 21.0072C180.343 21.0072 184.434 24.2269 183.026 29.4699L185.841 26.6021L189.061 23.3252C190.319 22.0365 190.314 19.978 189.043 18.7024Z" fill="url(#paint0_linear_132_3)"></path><path d="M177.264 35.342L182.797 29.7032L183.026 29.47C184.434 24.2226 180.343 21.0073 180.343 21.0073L170.816 30.5873C169.153 32.4258 168.48 35.2981 170.979 36.9871C170.983 36.9827 173.649 38.8301 177.264 35.342Z" fill="url(#paint1_linear_132_3)"></path><path d="M181.522 5.41016H176.622V10.3101H181.522V5.41016Z" fill="url(#paint2_linear_132_3)"></path><path d="M185.845 0.804932H182.085V4.56566H185.845V0.804932Z" fill="url(#paint3_linear_132_3)"></path><path d="M178.205 0H175.887V2.31801H178.205V0Z" fill="url(#paint4_linear_132_3)"></path><path d="M185.85 7.99194H183.532V10.31H185.85V7.99194Z" fill="url(#paint5_linear_132_3)"></path><defs><linearGradient id="paint0_linear_132_3" x1="189.999" y1="17.0258" x2="169.24" y2="17.0258" gradientUnits="userSpaceOnUse"><stop stop-color="#FCB116"></stop><stop offset="1" stop-color="#D24527"></stop></linearGradient><linearGradient id="paint1_linear_132_3" x1="183.321" y1="29.2386" x2="169.333" y2="29.2386" gradientUnits="userSpaceOnUse"><stop stop-color="#FCB116"></stop><stop offset="1" stop-color="#D24527"></stop></linearGradient><linearGradient id="paint2_linear_132_3" x1="175.769" y1="7.8578" x2="186.604" y2="7.8578" gradientUnits="userSpaceOnUse"><stop stop-color="#FCB116"></stop><stop offset="1" stop-color="#D24527"></stop></linearGradient><linearGradient id="paint3_linear_132_3" x1="175.769" y1="2.68459" x2="186.604" y2="2.68459" gradientUnits="userSpaceOnUse"><stop stop-color="#FCB116"></stop><stop offset="1" stop-color="#D24527"></stop></linearGradient><linearGradient id="paint4_linear_132_3" x1="175.769" y1="1.15689" x2="186.604" y2="1.15689" gradientUnits="userSpaceOnUse"><stop stop-color="#FCB116"></stop><stop offset="1" stop-color="#D24527"></stop></linearGradient><linearGradient id="paint5_linear_132_3" x1="175.769" y1="9.14884" x2="186.603" y2="9.14884" gradientUnits="userSpaceOnUse"><stop stop-color="#FCB116"></stop><stop offset="1" stop-color="#D24527"></stop></linearGradient></defs></svg>